<svg id="svg" version="1.1" xmlns="http://www.w3.org/2000/svg" xmlns:xlink="http://www.w3.org/1999/xlink" width="400" height="300" viewBox="0, 0, 400,300"><g id="svgg"><path id="path0" d="M285.161 71.532 C 286.283 72.135,287.768 72.996,288.462 73.445 C 289.155 73.894,290.060 74.433,290.473 74.643 C 290.885 74.852,291.763 75.351,292.423 75.751 C 293.083 76.151,294.022 76.707,294.509 76.988 C 294.996 77.268,295.580 77.682,295.806 77.908 C 296.032 78.135,296.336 78.320,296.482 78.320 C 296.881 78.320,298.992 79.805,299.252 80.269 C 299.376 80.491,299.849 80.755,300.302 80.855 C 300.755 80.955,301.705 81.574,302.414 82.229 C 303.122 82.885,303.846 83.421,304.022 83.421 C 304.347 83.421,307.049 85.511,307.877 86.402 C 308.125 86.669,309.340 87.692,310.578 88.675 C 312.928 90.543,317.545 94.776,317.745 95.246 C 317.809 95.395,318.551 96.281,319.395 97.214 C 320.985 98.971,322.643 100.913,323.561 102.094 C 326.161 105.440,326.695 106.172,327.013 106.827 C 327.405 107.634,327.477 107.752,329.405 110.793 C 330.108 111.902,330.683 112.904,330.683 113.020 C 330.683 113.136,330.865 113.444,331.087 113.705 C 331.310 113.965,331.702 114.786,331.959 115.529 C 333.023 118.603,333.404 119.608,333.707 120.135 C 334.196 120.985,335.183 124.723,335.582 127.232 C 335.779 128.470,336.107 129.777,336.312 130.138 C 336.755 130.917,336.851 145.098,336.415 145.367 C 336.267 145.458,335.991 146.715,335.801 148.160 C 335.612 149.605,335.261 151.228,335.023 151.767 C 334.784 152.306,334.505 153.318,334.402 154.018 C 334.298 154.717,333.959 155.735,333.649 156.281 C 333.338 156.827,333.083 157.518,333.083 157.816 C 333.083 158.115,332.813 158.702,332.483 159.122 C 332.153 159.541,331.883 160.039,331.883 160.228 C 331.883 160.417,331.621 161.071,331.300 161.681 C 330.980 162.291,330.358 163.524,329.918 164.421 C 329.479 165.318,328.884 166.398,328.598 166.822 C 328.311 167.245,327.684 168.200,327.205 168.942 C 326.725 169.685,326.164 170.401,325.957 170.533 C 325.751 170.665,325.581 170.951,325.581 171.169 C 325.581 171.388,324.940 172.366,324.156 173.343 C 322.212 175.766,322.023 175.989,320.480 177.674 C 319.737 178.485,318.522 179.822,317.779 180.645 C 317.037 181.467,315.690 182.764,314.787 183.525 C 313.884 184.286,312.860 185.296,312.512 185.769 C 312.163 186.241,311.011 187.321,309.952 188.167 C 308.893 189.013,307.959 189.812,307.877 189.943 C 307.794 190.073,307.254 190.387,306.677 190.640 C 306.099 190.893,304.884 191.785,303.976 192.622 C 303.068 193.460,302.056 194.231,301.725 194.337 C 301.395 194.443,300.499 195.051,299.733 195.689 C 298.968 196.327,298.239 196.849,298.114 196.849 C 297.989 196.849,297.130 197.354,296.205 197.970 C 295.280 198.587,294.151 199.296,293.695 199.546 C 293.240 199.795,291.698 200.709,290.269 201.575 C 288.839 202.442,287.545 203.151,287.393 203.151 C 287.241 203.151,286.773 203.421,286.353 203.751 C 285.934 204.081,285.347 204.351,285.049 204.351 C 284.750 204.351,284.426 204.481,284.328 204.639 C 284.115 204.985,277.560 208.252,277.079 208.252 C 276.894 208.252,276.582 208.446,276.385 208.683 C 276.188 208.920,275.598 209.208,275.073 209.323 C 274.548 209.438,273.648 209.784,273.073 210.093 C 272.498 210.401,271.849 210.653,271.632 210.653 C 271.414 210.653,270.737 210.921,270.127 211.249 C 268.592 212.074,266.271 213.053,265.849 213.053 C 265.656 213.053,265.007 213.311,264.407 213.627 C 263.321 214.197,261.540 214.843,258.965 215.599 C 258.222 215.817,257.209 216.210,256.714 216.473 C 256.219 216.736,255.510 216.951,255.138 216.952 C 254.766 216.953,253.958 217.224,253.342 217.554 C 252.726 217.884,251.843 218.155,251.380 218.155 C 250.917 218.155,250.009 218.425,249.362 218.755 C 248.715 219.085,247.904 219.355,247.559 219.355 C 247.214 219.355,246.510 219.573,245.995 219.840 C 245.479 220.106,244.136 220.440,243.011 220.581 C 241.886 220.723,240.660 221.033,240.288 221.270 C 239.915 221.508,238.687 221.842,237.559 222.013 C 236.432 222.184,235.351 222.453,235.159 222.611 C 234.966 222.769,234.003 222.998,233.017 223.120 C 232.032 223.242,230.811 223.515,230.304 223.727 C 229.797 223.939,228.510 224.199,227.444 224.305 C 226.378 224.411,224.764 224.749,223.856 225.055 C 222.948 225.361,221.279 225.685,220.145 225.776 C 219.012 225.866,217.932 226.065,217.745 226.218 C 217.558 226.371,216.054 226.592,214.404 226.711 C 212.753 226.829,210.958 227.109,210.414 227.332 C 209.859 227.560,207.095 227.884,204.112 228.072 C 200.891 228.275,198.504 228.563,198.048 228.805 C 197.542 229.074,195.332 229.277,191.296 229.424 C 187.565 229.560,184.856 229.797,184.133 230.050 C 182.436 230.645,149.874 230.648,148.451 230.054 C 147.821 229.790,145.342 229.573,141.336 229.430 C 137.390 229.288,135.036 229.084,134.765 228.858 C 134.531 228.664,132.182 228.336,129.512 228.125 C 123.109 227.618,123.044 227.610,121.830 227.228 C 121.253 227.046,119.497 226.806,117.929 226.694 C 116.362 226.582,114.930 226.370,114.748 226.224 C 114.567 226.077,113.284 225.836,111.898 225.688 C 110.511 225.540,108.875 225.203,108.262 224.938 C 107.648 224.673,106.616 224.456,105.968 224.456 C 105.320 224.456,103.931 224.194,102.882 223.873 C 101.833 223.553,100.098 223.198,99.025 223.084 C 97.952 222.970,96.809 222.739,96.484 222.571 C 95.687 222.157,92.159 221.210,89.502 220.695 C 88.308 220.464,86.930 220.068,86.441 219.815 C 85.952 219.562,85.274 219.355,84.935 219.355 C 84.596 219.355,83.815 219.085,83.199 218.755 C 82.583 218.425,81.605 218.150,81.025 218.144 C 80.445 218.138,79.632 217.940,79.220 217.704 C 78.161 217.099,77.217 217.099,77.719 217.704 C 77.925 217.952,78.299 218.155,78.551 218.155 C 78.804 218.155,79.698 218.476,80.540 218.868 C 83.742 220.362,84.953 220.855,85.419 220.855 C 85.684 220.855,86.322 221.109,86.836 221.419 C 87.351 221.729,88.265 222.070,88.867 222.177 C 89.469 222.284,90.127 222.570,90.329 222.814 C 90.531 223.057,91.051 223.259,91.485 223.262 C 91.918 223.266,92.829 223.521,93.508 223.830 C 94.187 224.138,95.200 224.486,95.759 224.603 C 96.317 224.720,97.044 224.984,97.374 225.190 C 97.704 225.397,98.479 225.660,99.096 225.774 C 99.712 225.888,100.793 226.243,101.496 226.563 C 102.200 226.882,103.154 227.147,103.616 227.150 C 104.078 227.154,104.823 227.347,105.272 227.579 C 105.721 227.811,106.881 228.148,107.849 228.327 C 108.817 228.506,109.765 228.781,109.955 228.939 C 110.145 229.096,111.190 229.368,112.278 229.541 C 113.365 229.715,114.710 230.043,115.267 230.271 C 115.824 230.499,117.065 230.780,118.026 230.896 C 118.987 231.012,120.202 231.281,120.727 231.494 C 121.251 231.707,122.524 231.973,123.555 232.085 C 124.585 232.196,125.868 232.469,126.405 232.690 C 126.942 232.911,128.395 233.190,129.632 233.309 C 130.870 233.428,132.456 233.718,133.157 233.954 C 133.858 234.189,135.816 234.505,137.508 234.656 C 139.201 234.806,140.990 235.066,141.485 235.234 C 141.980 235.401,144.209 235.681,146.437 235.856 C 148.665 236.031,151.028 236.307,151.688 236.469 C 152.348 236.632,155.791 236.899,159.340 237.063 C 162.888 237.227,167.622 237.496,169.859 237.660 C 175.105 238.046,189.664 238.046,195.143 237.660 C 197.484 237.495,202.236 237.226,205.701 237.062 C 209.167 236.898,212.543 236.631,213.203 236.467 C 213.863 236.304,216.269 236.026,218.549 235.850 C 220.828 235.674,223.052 235.393,223.490 235.227 C 223.928 235.060,225.675 234.802,227.373 234.653 C 229.071 234.504,231.033 234.189,231.734 233.954 C 232.435 233.718,234.021 233.428,235.259 233.309 C 236.497 233.190,237.949 232.911,238.486 232.690 C 239.023 232.469,240.306 232.196,241.337 232.085 C 242.367 231.973,243.640 231.707,244.165 231.494 C 244.689 231.281,245.904 231.009,246.865 230.889 C 247.826 230.769,249.342 230.421,250.235 230.115 C 251.127 229.808,252.275 229.553,252.785 229.547 C 253.296 229.542,254.254 229.276,254.914 228.957 C 255.574 228.638,256.480 228.373,256.928 228.367 C 257.376 228.362,258.389 228.106,259.179 227.800 C 259.969 227.493,261.199 227.152,261.912 227.042 C 262.625 226.933,263.502 226.653,263.862 226.422 C 264.222 226.190,265.056 225.908,265.716 225.795 C 266.377 225.682,267.189 225.419,267.521 225.212 C 267.854 225.005,268.731 224.692,269.472 224.518 C 271.002 224.157,273.255 223.393,275.019 222.637 C 275.679 222.354,276.692 221.958,277.269 221.757 C 280.222 220.730,280.779 220.515,281.470 220.136 C 281.883 219.909,282.650 219.632,283.175 219.520 C 283.700 219.408,284.279 219.136,284.463 218.915 C 284.646 218.694,285.162 218.427,285.609 218.321 C 286.543 218.101,286.862 217.952,294.468 214.193 C 297.573 212.658,300.476 211.227,300.919 211.012 C 301.363 210.797,301.928 210.499,302.176 210.349 C 302.423 210.199,303.480 209.565,304.525 208.939 C 307.771 206.996,310.065 205.553,311.628 204.471 C 311.958 204.243,312.971 203.553,313.878 202.939 C 319.795 198.938,327.060 192.842,331.133 188.462 C 332.123 187.397,333.206 186.241,333.539 185.892 C 333.872 185.543,334.615 184.661,335.190 183.932 C 335.764 183.203,336.437 182.377,336.684 182.097 C 337.753 180.888,338.148 180.340,340.203 177.203 C 341.396 175.383,342.485 173.757,342.623 173.591 C 342.761 173.424,343.374 172.249,343.984 170.980 C 344.595 169.711,345.227 168.590,345.390 168.490 C 345.553 168.389,345.686 168.093,345.686 167.832 C 345.686 167.571,345.940 166.803,346.250 166.124 C 347.106 164.250,348.032 161.728,348.356 160.390 C 348.515 159.730,348.852 158.650,349.104 157.989 C 349.355 157.329,349.567 156.307,349.574 155.718 C 349.581 155.129,349.818 153.914,350.099 153.018 C 350.857 150.602,350.866 139.202,350.112 136.855 C 349.823 135.958,349.581 134.676,349.574 134.004 C 349.567 133.333,349.353 132.243,349.100 131.583 C 348.846 130.923,348.452 129.707,348.225 128.882 C 346.645 123.136,342.286 114.725,338.197 109.527 C 337.612 108.785,336.807 107.712,336.407 107.143 C 335.064 105.235,327.080 97.030,324.052 94.446 C 321.774 92.503,315.911 87.922,315.701 87.922 C 315.475 87.922,314.492 87.199,313.356 86.197 C 312.935 85.825,312.424 85.521,312.221 85.521 C 312.018 85.521,311.672 85.305,311.452 85.040 C 311.232 84.775,310.777 84.435,310.440 84.284 C 310.103 84.133,309.220 83.607,308.477 83.116 C 307.734 82.624,306.722 82.015,306.227 81.761 C 305.731 81.507,304.584 80.837,303.676 80.271 C 302.768 79.706,301.878 79.238,301.697 79.231 C 301.516 79.225,301.124 78.950,300.825 78.620 C 300.526 78.290,300.043 78.020,299.750 78.020 C 299.457 78.020,299.039 77.843,298.821 77.628 C 298.357 77.170,294.622 75.319,294.162 75.319 C 293.989 75.319,293.690 75.130,293.498 74.898 C 293.306 74.667,292.784 74.386,292.337 74.274 C 291.891 74.162,291.348 73.922,291.129 73.741 C 290.736 73.415,284.877 70.935,283.721 70.605 C 283.391 70.511,284.039 70.928,285.161 71.532 " stroke="none" fill="#fc7c04" fill-rule="evenodd"></path><path id="path1" d="M265.116 63.316 C 265.945 63.672,266.467 63.672,266.467 63.316 C 266.467 63.151,266.028 63.025,265.491 63.037 C 264.674 63.055,264.613 63.100,265.116 63.316 M266.966 63.817 C 266.686 64.096,267.359 64.816,267.899 64.816 C 268.151 64.816,269.046 65.141,269.887 65.539 C 270.729 65.936,272.768 66.828,274.419 67.521 C 278.191 69.105,278.518 69.251,279.070 69.590 C 279.317 69.742,280.938 70.568,282.671 71.425 C 284.404 72.282,286.362 73.297,287.022 73.682 C 287.682 74.066,289.017 74.805,289.989 75.325 C 290.961 75.844,292.851 76.982,294.190 77.852 C 295.529 78.722,297.029 79.660,297.524 79.936 C 298.020 80.212,299.235 81.034,300.225 81.764 C 301.215 82.493,302.903 83.681,303.976 84.404 C 305.049 85.128,306.669 86.388,307.577 87.205 C 308.485 88.022,309.970 89.285,310.878 90.011 C 312.680 91.453,316.513 95.214,318.850 97.834 C 321.269 100.545,323.273 102.920,323.767 103.661 C 327.398 109.104,327.636 109.485,329.634 113.040 C 330.395 114.395,331.134 115.880,331.276 116.341 C 331.418 116.802,332.016 118.318,332.605 119.710 C 333.194 121.102,333.802 122.857,333.956 123.611 C 334.109 124.365,334.447 125.724,334.706 126.632 C 334.965 127.539,335.178 128.704,335.180 129.221 C 335.182 129.737,335.386 130.644,335.634 131.237 C 336.262 132.739,336.255 142.738,335.625 144.486 C 335.387 145.146,335.189 146.227,335.185 146.887 C 335.180 147.547,334.964 148.830,334.705 149.737 C 334.446 150.645,334.051 152.063,333.827 152.888 C 333.240 155.053,332.580 156.839,331.609 158.890 C 329.260 163.851,328.716 164.950,328.267 165.641 C 323.373 173.176,321.687 175.326,316.557 180.571 C 311.482 185.760,306.821 189.947,306.120 189.947 C 305.942 189.947,305.143 190.528,304.344 191.238 C 303.545 191.947,302.359 192.853,301.708 193.251 C 301.057 193.648,299.901 194.451,299.137 195.036 C 298.374 195.621,297.361 196.318,296.887 196.586 C 296.412 196.854,294.741 197.857,293.173 198.815 C 289.141 201.279,284.875 203.678,284.090 203.924 C 283.722 204.039,283.099 204.385,282.705 204.692 C 282.312 205.000,281.861 205.251,281.704 205.251 C 281.546 205.251,280.113 205.878,278.518 206.644 C 276.924 207.409,275.214 208.208,274.719 208.419 C 271.189 209.920,270.113 210.353,269.904 210.353 C 269.772 210.353,269.451 210.535,269.191 210.757 C 268.930 210.980,268.110 211.369,267.367 211.623 C 266.624 211.877,265.274 212.380,264.366 212.740 C 261.987 213.685,259.616 214.541,258.065 215.017 C 256.661 215.447,251.410 217.202,249.062 218.026 C 248.320 218.287,246.969 218.669,246.062 218.875 C 245.154 219.082,244.141 219.391,243.811 219.563 C 243.481 219.734,242.527 219.961,241.692 220.068 C 240.857 220.174,239.408 220.530,238.474 220.858 C 237.539 221.187,236.429 221.455,236.007 221.455 C 235.585 221.455,234.792 221.642,234.245 221.871 C 233.698 222.100,232.520 222.381,231.629 222.496 C 230.737 222.611,228.995 222.953,227.757 223.257 C 222.695 224.499,217.154 225.496,210.203 226.416 C 208.387 226.656,206.024 226.995,204.951 227.169 C 202.398 227.583,198.447 227.952,192.348 228.348 C 189.625 228.524,186.310 228.801,184.981 228.963 C 181.837 229.346,150.646 229.346,147.502 228.963 C 146.174 228.801,142.858 228.524,140.135 228.348 C 134.074 227.955,130.103 227.585,127.532 227.173 C 126.459 227.001,124.096 226.657,122.281 226.410 C 116.719 225.651,112.499 224.957,109.377 224.290 C 108.222 224.043,106.062 223.576,104.576 223.252 C 103.091 222.929,100.323 222.331,98.425 221.924 C 96.527 221.516,94.383 220.974,93.661 220.719 C 92.939 220.464,92.030 220.255,91.641 220.255 C 91.000 220.255,89.238 219.767,85.521 218.560 C 84.779 218.319,83.293 217.873,82.221 217.568 C 77.750 216.300,74.011 215.031,72.872 214.397 C 72.434 214.153,71.824 213.953,71.517 213.953 C 71.210 213.953,70.459 213.686,69.849 213.359 C 69.239 213.031,68.160 212.675,67.453 212.567 C 66.745 212.460,66.004 212.243,65.806 212.087 C 65.607 211.931,65.202 211.866,64.906 211.943 C 64.472 212.056,64.495 212.090,65.024 212.118 C 65.386 212.137,65.859 212.399,66.075 212.699 C 66.445 213.216,68.570 214.470,70.218 215.145 C 70.630 215.314,71.170 215.580,71.418 215.735 C 72.154 216.198,77.508 218.653,78.320 218.900 C 78.732 219.026,79.205 219.231,79.370 219.356 C 79.663 219.579,85.234 221.831,87.922 222.813 C 95.849 225.709,96.684 225.986,103.676 228.051 C 109.770 229.851,112.753 230.632,117.479 231.668 C 119.790 232.174,122.761 232.840,124.081 233.149 C 125.401 233.457,127.157 233.795,127.982 233.900 C 128.807 234.005,129.887 234.218,130.383 234.373 C 131.258 234.648,134.434 235.133,141.185 236.024 C 143.001 236.263,145.904 236.656,147.637 236.898 C 149.370 237.139,152.003 237.418,153.488 237.518 C 154.974 237.617,158.147 237.916,160.540 238.182 C 166.891 238.887,198.042 238.884,204.351 238.178 C 206.744 237.910,210.053 237.607,211.703 237.506 C 213.353 237.404,215.851 237.138,217.254 236.915 C 218.657 236.693,220.683 236.427,221.755 236.324 C 225.925 235.927,236.830 234.053,243.511 232.587 C 244.996 232.261,247.224 231.777,248.462 231.512 C 249.700 231.247,251.388 230.835,252.213 230.598 C 253.038 230.361,255.941 229.556,258.665 228.810 C 261.388 228.063,264.021 227.309,264.516 227.133 C 265.011 226.957,266.227 226.569,267.217 226.270 C 281.838 221.856,302.902 211.860,313.581 204.270 C 326.642 194.985,335.446 186.340,341.612 176.744 C 342.089 176.002,342.702 175.056,342.974 174.644 C 343.245 174.231,343.920 173.016,344.472 171.943 C 345.024 170.870,345.581 169.790,345.710 169.542 C 348.763 163.662,350.981 155.458,351.371 148.609 C 351.878 139.709,350.925 133.553,347.623 124.392 C 346.308 120.742,343.290 115.409,338.871 108.927 C 336.175 104.973,329.538 98.081,323.019 92.465 C 321.684 91.316,318.081 88.546,316.021 87.085 C 313.307 85.162,307.868 81.635,305.674 80.376 C 304.710 79.822,303.495 79.111,302.974 78.794 C 300.991 77.589,291.609 72.919,288.190 71.434 C 286.227 70.582,284.066 69.622,283.388 69.301 C 282.710 68.980,282.035 68.713,281.888 68.707 C 281.741 68.701,281.080 68.436,280.420 68.117 C 279.760 67.798,279.051 67.533,278.844 67.527 C 278.637 67.521,277.964 67.247,277.348 66.917 C 276.732 66.587,275.952 66.317,275.615 66.317 C 275.278 66.317,274.732 66.127,274.402 65.896 C 274.071 65.665,273.197 65.313,272.459 65.114 C 271.722 64.916,270.780 64.584,270.368 64.376 C 269.452 63.916,267.231 63.551,266.966 63.817 M287.527 72.094 C 289.290 72.819,290.911 73.560,291.129 73.741 C 291.348 73.922,291.891 74.162,292.337 74.274 C 292.784 74.386,293.306 74.667,293.498 74.898 C 293.690 75.130,293.989 75.319,294.162 75.319 C 294.622 75.319,298.357 77.170,298.821 77.628 C 299.039 77.843,299.457 78.020,299.750 78.020 C 300.043 78.020,300.526 78.290,300.825 78.620 C 301.124 78.950,301.516 79.225,301.697 79.231 C 301.878 79.238,302.768 79.706,303.676 80.271 C 304.584 80.837,305.731 81.507,306.227 81.761 C 306.722 82.015,307.734 82.624,308.477 83.116 C 309.220 83.607,310.103 84.133,310.440 84.284 C 310.777 84.435,311.232 84.775,311.452 85.040 C 311.672 85.305,312.018 85.521,312.221 85.521 C 312.424 85.521,312.935 85.825,313.356 86.197 C 314.492 87.199,315.475 87.922,315.701 87.922 C 315.911 87.922,321.774 92.503,324.052 94.446 C 327.080 97.030,335.064 105.235,336.407 107.143 C 336.807 107.712,337.612 108.785,338.197 109.527 C 342.286 114.725,346.645 123.136,348.225 128.882 C 348.452 129.707,348.846 130.923,349.100 131.583 C 349.353 132.243,349.567 133.333,349.574 134.004 C 349.581 134.676,349.823 135.958,350.112 136.855 C 350.866 139.202,350.857 150.602,350.099 153.018 C 349.818 153.914,349.581 155.129,349.574 155.718 C 349.567 156.307,349.355 157.329,349.104 157.989 C 348.852 158.650,348.515 159.730,348.356 160.390 C 348.032 161.728,347.106 164.250,346.250 166.124 C 345.940 166.803,345.686 167.571,345.686 167.832 C 345.686 168.093,345.553 168.389,345.390 168.490 C 345.227 168.590,344.595 169.711,343.984 170.980 C 343.374 172.249,342.761 173.424,342.623 173.591 C 342.485 173.757,341.396 175.383,340.203 177.203 C 338.148 180.340,337.753 180.888,336.684 182.097 C 336.437 182.377,335.764 183.203,335.190 183.932 C 334.615 184.661,333.872 185.543,333.539 185.892 C 333.206 186.241,332.123 187.397,331.133 188.462 C 327.060 192.842,319.795 198.938,313.878 202.939 C 312.971 203.553,311.958 204.243,311.628 204.471 C 310.065 205.553,307.771 206.996,304.525 208.939 C 303.480 209.565,302.423 210.199,302.176 210.349 C 301.928 210.499,301.363 210.797,300.919 211.012 C 300.476 211.227,297.573 212.658,294.468 214.193 C 286.862 217.952,286.543 218.101,285.609 218.321 C 285.162 218.427,284.646 218.694,284.463 218.915 C 284.279 219.136,283.700 219.408,283.175 219.520 C 282.650 219.632,281.883 219.909,281.470 220.136 C 280.779 220.515,280.222 220.730,277.269 221.757 C 276.692 221.958,275.679 222.354,275.019 222.637 C 273.255 223.393,271.002 224.157,269.472 224.518 C 268.731 224.692,267.854 225.005,267.521 225.212 C 267.189 225.419,266.377 225.682,265.716 225.795 C 265.056 225.908,264.222 226.190,263.862 226.422 C 263.502 226.653,262.625 226.933,261.912 227.042 C 261.199 227.152,259.969 227.493,259.179 227.800 C 258.389 228.106,257.376 228.362,256.928 228.367 C 256.480 228.373,255.574 228.638,254.914 228.957 C 254.254 229.276,253.296 229.542,252.785 229.547 C 252.275 229.553,251.127 229.808,250.235 230.115 C 249.342 230.421,247.826 230.769,246.865 230.889 C 245.904 231.009,244.689 231.281,244.165 231.494 C 243.640 231.707,242.367 231.973,241.337 232.085 C 240.306 232.196,239.023 232.469,238.486 232.690 C 237.949 232.911,236.497 233.190,235.259 233.309 C 234.021 233.428,232.435 233.718,231.734 233.954 C 231.033 234.189,229.071 234.504,227.373 234.653 C 225.675 234.802,223.928 235.060,223.490 235.227 C 223.052 235.393,220.828 235.674,218.549 235.850 C 216.269 236.026,213.863 236.304,213.203 236.467 C 212.543 236.631,209.167 236.898,205.701 237.062 C 202.236 237.226,197.484 237.495,195.143 237.660 C 189.664 238.046,175.105 238.046,169.859 237.660 C 167.622 237.496,162.888 237.227,159.340 237.063 C 155.791 236.899,152.348 236.632,151.688 236.469 C 151.028 236.307,148.665 236.031,146.437 235.856 C 144.209 235.681,141.980 235.401,141.485 235.234 C 140.990 235.066,139.201 234.806,137.508 234.656 C 135.816 234.505,133.858 234.189,133.157 233.954 C 132.456 233.718,130.870 233.428,129.632 233.309 C 128.395 233.190,126.942 232.911,126.405 232.690 C 125.868 232.469,124.585 232.196,123.555 232.085 C 122.524 231.973,121.251 231.707,120.727 231.494 C 120.202 231.281,118.987 231.012,118.026 230.896 C 117.065 230.780,115.824 230.499,115.267 230.271 C 114.710 230.043,113.365 229.715,112.278 229.541 C 111.190 229.368,110.145 229.096,109.955 228.939 C 109.765 228.781,108.817 228.506,107.849 228.327 C 106.881 228.148,105.721 227.811,105.272 227.579 C 104.823 227.347,104.078 227.154,103.616 227.150 C 103.154 227.147,102.200 226.882,101.496 226.563 C 100.793 226.243,99.712 225.888,99.096 225.774 C 98.479 225.660,97.704 225.397,97.374 225.190 C 97.044 224.984,96.317 224.720,95.759 224.603 C 95.200 224.486,94.187 224.138,93.508 223.830 C 92.829 223.521,91.918 223.266,91.485 223.262 C 91.051 223.259,90.531 223.057,90.329 222.814 C 90.127 222.570,89.469 222.284,88.867 222.177 C 88.265 222.070,87.351 221.729,86.836 221.419 C 86.322 221.109,85.684 220.855,85.419 220.855 C 84.953 220.855,83.742 220.362,80.540 218.868 C 79.698 218.476,78.804 218.155,78.551 218.155 C 78.299 218.155,77.925 217.952,77.719 217.704 C 77.217 217.099,78.161 217.099,79.220 217.704 C 79.632 217.940,80.445 218.138,81.025 218.144 C 81.605 218.150,82.583 218.425,83.199 218.755 C 83.815 219.085,84.596 219.355,84.935 219.355 C 85.274 219.355,85.952 219.562,86.441 219.815 C 86.930 220.068,88.308 220.464,89.502 220.695 C 92.159 221.210,95.687 222.157,96.484 222.571 C 96.809 222.739,97.952 222.970,99.025 223.084 C 100.098 223.198,101.833 223.553,102.882 223.873 C 103.931 224.194,105.320 224.456,105.968 224.456 C 106.616 224.456,107.648 224.673,108.262 224.938 C 108.875 225.203,110.511 225.540,111.898 225.688 C 113.284 225.836,114.567 226.077,114.748 226.224 C 114.930 226.370,116.362 226.582,117.929 226.694 C 119.497 226.806,121.253 227.046,121.830 227.228 C 123.044 227.610,123.109 227.618,129.512 228.125 C 132.182 228.336,134.531 228.664,134.765 228.858 C 135.036 229.084,137.390 229.288,141.336 229.430 C 145.342 229.573,147.821 229.790,148.451 230.054 C 149.874 230.648,182.436 230.645,184.133 230.050 C 184.856 229.797,187.565 229.560,191.296 229.424 C 195.332 229.277,197.542 229.074,198.048 228.805 C 198.504 228.563,200.891 228.275,204.112 228.072 C 207.095 227.884,209.859 227.560,210.414 227.332 C 210.958 227.109,212.753 226.829,214.404 226.711 C 216.054 226.592,217.558 226.371,217.745 226.218 C 217.932 226.065,219.012 225.866,220.145 225.776 C 221.279 225.685,222.948 225.361,223.856 225.055 C 224.764 224.749,226.378 224.411,227.444 224.305 C 228.510 224.199,229.797 223.939,230.304 223.727 C 230.811 223.515,232.032 223.242,233.017 223.120 C 234.003 222.998,234.966 222.769,235.159 222.611 C 235.351 222.453,236.432 222.184,237.559 222.013 C 238.687 221.842,239.915 221.508,240.288 221.270 C 240.660 221.033,241.886 220.723,243.011 220.581 C 244.136 220.440,245.479 220.106,245.995 219.840 C 246.510 219.573,247.214 219.355,247.559 219.355 C 247.904 219.355,248.715 219.085,249.362 218.755 C 250.009 218.425,250.917 218.155,251.380 218.155 C 251.843 218.155,252.726 217.884,253.342 217.554 C 253.958 217.224,254.766 216.953,255.138 216.952 C 255.510 216.951,256.219 216.736,256.714 216.473 C 257.209 216.210,258.222 215.817,258.965 215.599 C 261.540 214.843,263.321 214.197,264.407 213.627 C 265.007 213.311,265.656 213.053,265.849 213.053 C 266.271 213.053,268.592 212.074,270.127 211.249 C 270.737 210.921,271.414 210.653,271.632 210.653 C 271.849 210.653,272.498 210.401,273.073 210.093 C 273.648 209.784,274.548 209.438,275.073 209.323 C 275.598 209.208,276.188 208.920,276.385 208.683 C 276.582 208.446,276.894 208.252,277.079 208.252 C 277.560 208.252,284.115 204.985,284.328 204.639 C 284.426 204.481,284.750 204.351,285.049 204.351 C 285.347 204.351,285.934 204.081,286.353 203.751 C 286.773 203.421,287.241 203.151,287.393 203.151 C 287.545 203.151,288.839 202.442,290.269 201.575 C 291.698 200.709,293.240 199.795,293.695 199.546 C 294.151 199.296,295.280 198.587,296.205 197.970 C 297.130 197.354,297.989 196.849,298.114 196.849 C 298.239 196.849,298.968 196.327,299.733 195.689 C 300.499 195.051,301.395 194.443,301.725 194.337 C 302.056 194.231,303.068 193.460,303.976 192.622 C 304.884 191.785,306.099 190.893,306.677 190.640 C 307.254 190.387,307.794 190.073,307.877 189.943 C 307.959 189.812,308.893 189.013,309.952 188.167 C 311.011 187.321,312.163 186.241,312.512 185.769 C 312.860 185.296,313.884 184.286,314.787 183.525 C 315.690 182.764,317.037 181.467,317.779 180.645 C 318.522 179.822,319.737 178.485,320.480 177.674 C 322.023 175.989,322.212 175.766,324.156 173.343 C 324.940 172.366,325.581 171.388,325.581 171.169 C 325.581 170.951,325.751 170.665,325.957 170.533 C 326.164 170.401,326.725 169.685,327.205 168.942 C 327.684 168.200,328.311 167.245,328.598 166.822 C 328.884 166.398,329.479 165.318,329.918 164.421 C 330.358 163.524,330.980 162.291,331.300 161.681 C 331.621 161.071,331.883 160.417,331.883 160.228 C 331.883 160.039,332.153 159.541,332.483 159.122 C 332.813 158.702,333.083 158.115,333.083 157.816 C 333.083 157.518,333.338 156.827,333.649 156.281 C 333.959 155.735,334.298 154.717,334.402 154.018 C 334.505 153.318,334.784 152.306,335.023 151.767 C 335.261 151.228,335.612 149.605,335.801 148.160 C 335.991 146.715,336.267 145.458,336.415 145.367 C 336.851 145.098,336.755 130.917,336.312 130.138 C 336.107 129.777,335.779 128.470,335.582 127.232 C 335.183 124.723,334.196 120.985,333.707 120.135 C 333.404 119.608,333.023 118.603,331.959 115.529 C 331.702 114.786,331.310 113.965,331.087 113.705 C 330.865 113.444,330.683 113.136,330.683 113.020 C 330.683 112.904,330.108 111.902,329.405 110.793 C 327.477 107.752,327.405 107.634,327.013 106.827 C 326.695 106.172,326.161 105.440,323.561 102.094 C 322.643 100.913,320.985 98.971,319.395 97.214 C 318.551 96.281,317.809 95.395,317.745 95.246 C 317.545 94.776,312.928 90.543,310.578 88.675 C 309.340 87.692,308.125 86.669,307.877 86.402 C 307.049 85.511,304.347 83.421,304.022 83.421 C 303.846 83.421,303.122 82.885,302.414 82.229 C 301.705 81.574,300.755 80.955,300.302 80.855 C 299.849 80.755,299.376 80.491,299.252 80.269 C 298.992 79.805,296.881 78.320,296.482 78.320 C 296.336 78.320,296.032 78.135,295.806 77.908 C 295.580 77.682,294.996 77.268,294.509 76.988 C 294.022 76.707,293.083 76.151,292.423 75.751 C 291.763 75.351,290.885 74.852,290.473 74.643 C 290.060 74.433,289.155 73.894,288.462 73.445 C 287.768 72.996,286.283 72.135,285.161 71.532 C 282.704 70.210,283.271 70.345,287.527 72.094 " stroke="none" fill="#dc6604" fill-rule="evenodd"></path></g></svg>